<?xml version="1.0" encoding="UTF-8" standalone="no"?>
<!-- Generator: Adobe Illustrator 19.1.0, SVG Export Plug-In . SVG Version: 6.00 Build 0)  -->

<svg
   xmlns:dc="http://purl.org/dc/elements/1.1/"
   xmlns:cc="http://creativecommons.org/ns#"
   xmlns:rdf="http://www.w3.org/1999/02/22-rdf-syntax-ns#"
   xmlns:svg="http://www.w3.org/2000/svg"
   xmlns="http://www.w3.org/2000/svg"
   xmlns:sodipodi="http://sodipodi.sourceforge.net/DTD/sodipodi-0.dtd"
   xmlns:inkscape="http://www.inkscape.org/namespaces/inkscape"
   version="1.0"
   id="Ebene_1"
   x="0px"
   y="0px"
   viewBox="0 0 128 128"
   style="enable-background:new 0 0 128 128;"
   xml:space="preserve"
   sodipodi:docname="map_manipulator_icon_doc.svg"
   inkscape:version="0.92.4 (5da689c313, 2019-01-14)"><metadata
   id="metadata39"><rdf:RDF><cc:Work
       rdf:about=""><dc:format>image/svg+xml</dc:format><dc:type
         rdf:resource="http://purl.org/dc/dcmitype/StillImage" /><dc:title></dc:title></cc:Work></rdf:RDF></metadata><defs
   id="defs37">
	
	
	
	
	
	
	
	
	
	
	
	
</defs><sodipodi:namedview
   pagecolor="#ffffff"
   bordercolor="#666666"
   borderopacity="1"
   objecttolerance="10"
   gridtolerance="10"
   guidetolerance="10"
   inkscape:pageopacity="0"
   inkscape:pageshadow="2"
   inkscape:window-width="1362"
   inkscape:window-height="887"
   id="namedview35"
   showgrid="false"
   inkscape:zoom="1.84375"
   inkscape:cx="-24.135593"
   inkscape:cy="64"
   inkscape:window-x="1318"
   inkscape:window-y="205"
   inkscape:window-maximized="0"
   inkscape:current-layer="Ebene_1" />
<style
   type="text/css"
   id="style2">
	.st0{fill:#F39200;}
	.st1{fill:#1D1D1B;}
	.st2{fill:#FFFFFF;}
	.st3{fill:none;stroke:#F39200;stroke-linecap:round;stroke-miterlimit:10;}
	.st4{fill:#F39200;stroke:#F39200;stroke-width:0.25;stroke-miterlimit:10;}
	.st5{fill:none;stroke:#1D1D1B;stroke-linecap:round;stroke-miterlimit:10;}
	.st6{fill:#FFFFFF;stroke:#FFFFFF;stroke-width:4;stroke-linecap:round;stroke-linejoin:round;stroke-miterlimit:10;}
	.st7{fill:none;stroke:#E6007E;stroke-linecap:round;stroke-miterlimit:10;}
	.st8{fill:#009FE3;}
	.st9{fill:#1C2E52;}
	.st10{fill:#C0C5CD;}
	.st11{fill:none;stroke:#1D1D1B;stroke-width:2;stroke-miterlimit:10;}
	.st12{fill:none;stroke:#C0C5CD;stroke-width:2;stroke-miterlimit:10;}
	.st13{fill:#0096AE;}
	.st14{fill:none;stroke:#1D1D1B;stroke-width:7;stroke-miterlimit:10;}
	.st15{fill:#1D1D1B;stroke:#1D1D1B;stroke-width:0.1;stroke-linecap:round;stroke-linejoin:round;stroke-miterlimit:10;}
	.st16{fill:none;}
	.st17{fill:none;stroke:#1D1C1B;stroke-width:2;stroke-linecap:round;stroke-linejoin:round;stroke-miterlimit:10;}
	.st18{fill:#1D1D1B;stroke:#FFFFFF;stroke-width:2;stroke-linecap:round;stroke-linejoin:round;stroke-miterlimit:10;}
	.st19{fill:none;stroke:#1D1D1B;stroke-width:2;stroke-linecap:round;stroke-linejoin:round;stroke-miterlimit:10;}
	.st20{fill:#E71D73;}
	.st21{fill:#F0F0F0;}
	.st22{fill:#E6007E;}
	.st23{fill:none;stroke:#1D1D1B;stroke-width:3;stroke-miterlimit:10;}
	.st24{fill:none;stroke:#1D1D1B;stroke-width:5;stroke-miterlimit:10;}
	.st25{fill:none;stroke:#1D1D1B;stroke-width:10;stroke-miterlimit:10;}
	.st26{fill:none;stroke:#1D1D1B;stroke-width:6;stroke-miterlimit:10;}
	.st27{fill:#009640;}
	.st28{fill:none;stroke:#009FE3;stroke-width:5;stroke-linejoin:round;}
	.st29{fill:none;stroke:#009FE3;stroke-width:3;stroke-linejoin:round;}
	.st30{fill:none;stroke:#1D1D1B;stroke-width:5;stroke-linejoin:round;}
	.st31{fill:#51509C;}
	.st32{fill:none;stroke:#1D1D1B;stroke-miterlimit:10;}
	.st33{fill:none;stroke:#FFFFFF;stroke-miterlimit:10;}
	.st34{fill:none;stroke:#FFFFFF;stroke-width:2;stroke-miterlimit:10;}
	.st35{fill:#1D1D1B;stroke:#FFFFFF;stroke-miterlimit:10;}
	.st36{fill:#FFFFFF;stroke:#1D1D1B;stroke-miterlimit:10;}
	.st37{fill:none;stroke:#1D1D1B;stroke-width:2;stroke-linecap:round;stroke-miterlimit:10;}
	.st38{fill:#009C3E;}
	.st39{fill:#E61883;}
	.st40{fill:#1D1D1B;stroke:#FFFFFF;stroke-linecap:round;stroke-linejoin:round;stroke-miterlimit:10;}
	.st41{fill:#1D1D1B;stroke:#1D1D1B;stroke-width:2;stroke-linecap:round;stroke-linejoin:round;stroke-miterlimit:10;}
	.st42{fill:#FFFFFF;stroke:#FFFFFF;stroke-width:6;stroke-linecap:round;stroke-linejoin:round;stroke-miterlimit:10;}
	.st43{fill:none;stroke:#1D1D1B;stroke-linecap:round;stroke-linejoin:round;stroke-miterlimit:10;}
	.st44{fill:#1D1D1B;stroke:#1D1D1B;stroke-linecap:round;stroke-linejoin:round;stroke-miterlimit:10;}
	.st45{fill:none;stroke:#1D1D1B;stroke-width:2;stroke-linecap:round;stroke-linejoin:round;}
	.st46{fill:none;stroke:#FFFFFF;stroke-width:3;stroke-linecap:round;stroke-miterlimit:10;}
	.st47{fill:none;stroke:#FFFFFF;stroke-width:2;stroke-linecap:round;stroke-miterlimit:10;}
	.st48{fill:#FFFFFF;stroke:#FFFFFF;stroke-width:4;stroke-miterlimit:10;}
	.st49{fill:none;stroke:#F39200;stroke-width:1.5;stroke-linecap:round;stroke-miterlimit:10;}
	.st50{fill:#00FF00;}
	.st51{fill:none;stroke:#1D1D1B;stroke-width:1.5;stroke-linecap:round;stroke-linejoin:round;}
	.st52{fill:#FF00FF;}
</style>
<path
   style="fill:#000000;stroke-width:1.99683034;fill-opacity:1"
   inkscape:connector-curvature="0"
   id="path30"
   d="m 53.516641,13.979397 c -1.597465,-1.597464 -3.394612,-2.396196 -5.591125,-2.396196 -2.196514,0 -3.993661,0.798732 -5.591125,2.396196 -1.597464,1.597464 -2.396197,3.394612 -2.396197,5.591125 v 65.895407 c 0,0.599049 -0.399366,0.998415 -0.998415,1.198098 -0.599049,0.199683 -1.198098,0 -1.397781,-0.399366 L 24.562601,69.09192 c -1.797147,-2.595879 -4.393027,-3.793977 -7.587955,-3.793977 -2.59588,0 -4.792393,0.998415 -6.589541,2.795562 -1.797147,1.797147 -2.795562,3.993661 -2.795562,6.58954 0,2.196514 0.599049,3.993661 1.99683,5.591125 l 32.148969,42.93185 C 43.532489,125.8019 46.128368,127 49.323297,127 H 107.0317 c 1.59746,0 2.99524,-0.59905 4.19334,-1.59746 1.1981,-0.99842 1.99683,-2.3962 2.3962,-3.99367 l 6.38985,-33.946111 c 0.19969,-1.597464 0.39937,-3.194928 0.39937,-4.792392 V 41.13629 c 0,-2.196514 -0.79873,-3.993661 -2.3962,-5.591125 -1.59746,-1.597465 -3.39461,-2.396197 -5.59112,-2.396197 -2.19651,0 -3.99366,0.798732 -5.59113,2.396197 -1.59746,1.597464 -2.39619,3.394611 -2.39619,5.591125 v 22.763871 c 0,0.798733 -0.59905,1.397782 -1.39778,1.397782 h -2.99525 c -0.798733,0 -1.397783,-0.599049 -1.397783,-1.397782 V 19.770205 c 0,-2.196513 -0.79873,-3.993661 -2.3962,-5.591125 -1.59746,-1.597464 -3.39461,-2.396196 -5.59112,-2.396196 -2.19652,0 -3.99366,0.798732 -5.59113,2.396196 -1.59746,1.597464 -2.396193,3.394612 -2.396193,5.591125 v 44.32964 c 0,0.798732 -0.59905,1.397781 -1.397782,1.397781 h -2.595879 c -0.798732,0 -1.397781,-0.599049 -1.397781,-1.397781 V 8.987321 c 0,-2.196513 -0.798733,-3.99366 -2.396197,-5.591125 C 73.285261,1.798732 71.488114,1 69.2916,1 67.095087,1 65.29794,1.798732 63.700475,3.396196 62.103011,4.993661 61.304279,6.790808 61.304279,8.987321 v 54.91284 c 0,0.798733 -0.599049,1.397782 -1.397781,1.397782 h -2.59588 c -0.798732,0 -1.397781,-0.599049 -1.397781,-1.397782 V 19.770205 c 0,-2.396196 -0.798732,-4.193344 -2.396196,-5.790808 z"
   class="st50" />
</svg>